<?xml version="1.0" encoding="UTF-8" standalone="no"?>
<svg
   xmlns:dc="http://purl.org/dc/elements/1.1/"
   xmlns:cc="http://creativecommons.org/ns#"
   xmlns:rdf="http://www.w3.org/1999/02/22-rdf-syntax-ns#"
   xmlns:svg="http://www.w3.org/2000/svg"
   xmlns="http://www.w3.org/2000/svg"
   viewBox="0 0 800 600"
   height="600"
   width="800"
   xml:space="preserve"
   version="1.1"
   id="svg2"><metadata
     id="metadata8"><rdf:RDF><cc:Work
         rdf:about=""><dc:format>image/svg+xml</dc:format><dc:type
           rdf:resource="http://purl.org/dc/dcmitype/StillImage" /></cc:Work></rdf:RDF></metadata><defs
     id="defs6"><clipPath
       id="clipPath16"
       clipPathUnits="userSpaceOnUse"><path
         id="path18"
         d="M 0,480 640,480 640,0 0,0 0,480 Z" /></clipPath><clipPath
       id="clipPath48"
       clipPathUnits="userSpaceOnUse"><path
         id="path50"
         d="m 306.404,152.954 25,0 0,-25 -25,0 0,25 z" /></clipPath><clipPath
       id="clipPath88"
       clipPathUnits="userSpaceOnUse"><path
         id="path90"
         d="m 298.284,251.342 43.84,0 0,-16.071 -43.84,0 0,16.071 z" /></clipPath></defs><g
     transform="matrix(1.25,0,0,-1.25,0,600)"
     id="g10"><g
       id="g12"><g
         clip-path="url(#clipPath16)"
         id="g14"><g
           transform="translate(147.7037,240.109)"
           id="g20"><path
             id="path22"
             style="fill:#ffffff;fill-opacity:1;fill-rule:nonzero;stroke:none"
             d="m 0,0 c 0,65.348 36.34,122.206 89.912,151.476 l -3.984,6.367 C 30.244,127.237 -7.5,68.029 -7.5,0 c 0,-60.638 29.985,-114.271 75.935,-146.884 l 3.986,6.371 C 28.584,-109.235 0,-57.956 0,0" /></g><g
           transform="translate(320.2037,412.609)"
           id="g24"><path
             id="path26"
             style="fill:#ffffff;fill-opacity:1;fill-rule:nonzero;stroke:none"
             d="m 0,0 c 29.921,0 58.06,-7.622 82.589,-21.024 l 3.983,6.367 C 60.884,-0.538 31.382,7.5 0,7.5 c -31.382,0 -60.884,-8.038 -86.572,-22.157 l 3.984,-6.367 C -58.06,-7.622 -29.921,0 0,0" /></g><g
           transform="translate(320.2037,67.609)"
           id="g28"><path
             id="path30"
             style="fill:#ffffff;fill-opacity:1;fill-rule:nonzero;stroke:none"
             d="m 0,0 c -37.313,0 -71.857,11.849 -100.079,31.987 l -3.986,-6.371 C -74.683,4.761 -38.774,-7.5 0,-7.5 c 38.774,0 74.683,12.261 104.065,33.116 l -3.986,6.371 C 71.857,11.849 37.313,0 0,0" /></g><g
           transform="translate(500.2037,240.109)"
           id="g32"><path
             id="path34"
             style="fill:#ffffff;fill-opacity:1;fill-rule:nonzero;stroke:none"
             d="m 0,0 c 0,68.029 -37.744,127.237 -93.428,157.843 l -3.983,-6.367 C -43.84,122.206 -7.5,65.348 -7.5,0 c 0,-57.956 -28.583,-109.235 -72.421,-140.513 l 3.986,-6.371 C -29.985,-114.271 0,-60.638 0,0" /></g><g
           transform="translate(402.7923,391.5853)"
           id="g36"><path
             id="path38"
             style="fill:#75919c;fill-opacity:1;fill-rule:nonzero;stroke:none"
             d="m 0,0 c -24.529,13.402 -52.668,21.024 -82.589,21.024 -29.92,0 -58.059,-7.622 -82.588,-21.024 -53.572,-29.271 -89.912,-86.128 -89.912,-151.476 0,-57.957 28.584,-109.235 72.421,-140.514 l 6.115,9.774 c -40.598,29.23 -67.036,76.895 -67.036,130.74 0,61.237 34.191,114.487 84.523,141.708 22.75,12.304 48.797,19.292 76.477,19.292 27.681,0 53.727,-6.988 76.478,-19.292 50.332,-27.221 84.522,-80.471 84.522,-141.708 0,-53.845 -26.438,-101.51 -67.035,-130.74 l 6.115,-9.774 c 43.837,31.279 72.42,82.557 72.42,140.514 C 89.911,-86.128 53.572,-29.271 0,0" /></g><g
           transform="translate(481.2037,240.109)"
           id="g40"><path
             id="path42"
             style="fill:#b4c7ce;fill-opacity:1;fill-rule:nonzero;stroke:none"
             d="M 0,0 C 0,61.238 -34.191,114.487 -84.522,141.708 -107.273,154.012 -133.32,161 -161,161 c -27.68,0 -53.727,-6.988 -76.478,-19.292 C -287.809,114.487 -322,61.238 -322,0 c 0,-53.845 26.438,-101.51 67.035,-130.739 l -6.114,-9.774 c 28.222,-20.138 62.766,-31.987 100.079,-31.987 37.313,0 71.857,11.849 100.079,31.987 l -6.114,9.774 C -26.438,-101.51 0,-53.845 0,0" /></g><g
           id="g44"><g
             id="g46" /><g
             id="g52"><g
               style="opacity:0.5"
               id="g54"
               clip-path="url(#clipPath48)"><g
                 id="g56"
                 transform="translate(306.4045,140.4543)"><path
                   id="path58"
                   style="fill:#ffffff;fill-opacity:1;fill-rule:nonzero;stroke:none"
                   d="M 0,0 C 0,-6.904 5.596,-12.5 12.5,-12.5 19.404,-12.5 25,-6.904 25,0 25,6.904 19.404,12.5 12.5,12.5 5.596,12.5 0,6.904 0,0" /></g></g></g></g><g
           transform="translate(292.2706,159.4714)"
           id="g60"><path
             id="path62"
             style="fill:#6b95a3;fill-opacity:1;fill-rule:nonzero;stroke:none"
             d="m 0,0 0,-3.766 c 0,-8.285 6.716,-15 15,-15 l 25,0 c 8.284,0 15,6.715 15,15 L 55,0 0,0 Z" /></g><g
           transform="translate(343.063,146.5334)"
           id="g64"><path
             id="path66"
             style="fill:#ffffff;fill-opacity:1;fill-rule:nonzero;stroke:#4e6f7e;stroke-width:2.75;stroke-linecap:round;stroke-linejoin:round;stroke-miterlimit:10;stroke-dasharray:none;stroke-opacity:1"
             d="M 0,0 -46.585,0" /></g><g
           transform="translate(320.2037,242.0547)"
           id="g68"><path
             id="path70"
             style="fill:#ffffff;fill-opacity:1;fill-rule:nonzero;stroke:none"
             d="m 0,0 c -19.899,0 -38.857,-4.03 -56.102,-11.317 -3.736,7.843 -9.73,17.769 -11.768,23.14 -0.014,0.025 -0.033,0.144 -0.033,0.144 l 0.009,0 c -3.023,8 -4.691,16.566 -4.691,25.617 0,40.133 32.452,72.625 72.585,72.625 40.133,0 72.585,-32.492 72.585,-72.625 0,-9.051 -1.668,-17.617 -4.691,-25.617 l 0.009,0 c 0,0 -0.019,-0.119 -0.033,-0.144 C 65.832,6.452 59.838,-3.474 56.102,-11.317 38.857,-4.03 19.899,0 0,0" /></g><g
           transform="translate(392.7889,279.6386)"
           id="g72"><path
             id="path74"
             style="fill:#edf1f2;fill-opacity:1;fill-rule:nonzero;stroke:none"
             d="m 0,0 c 0,19.259 -7.487,36.745 -19.696,49.739 1.207,-7.386 1.844,-14.964 1.844,-22.691 0,-25.205 -6.679,-48.848 -18.359,-69.262 6.782,-1.762 13.372,-4.001 19.728,-6.687 3.735,7.843 9.73,17.769 11.768,23.14 0.013,0.025 0.033,0.144 0.033,0.144 l -0.01,0 C -1.668,-17.617 0,-9.051 0,0" /></g><g
           transform="translate(320.2037,352.2636)"
           id="g76"><path
             id="path78"
             style="fill:#ffffff;fill-opacity:1;fill-rule:nonzero;stroke:none"
             d="m 0,0 c -40.133,0 -72.585,-32.492 -72.585,-72.625 0,-9.051 1.668,-17.617 4.691,-25.617 l -0.009,0 c 0,0 0.019,-0.119 0.033,-0.144 2.038,-5.371 8.032,-15.297 11.768,-23.14 17.245,7.287 36.203,11.317 56.102,11.317 12.565,0 24.753,-1.611 36.374,-4.63 11.681,20.414 18.36,44.057 18.36,69.262 0,7.727 -0.638,15.305 -1.845,22.691 C 39.656,-8.803 20.874,0 0,0" /></g><g
           transform="translate(302.2291,251.3421)"
           id="g80"><path
             id="path82"
             style="fill:#75919c;fill-opacity:1;fill-rule:nonzero;stroke:none"
             d="M 0,0 C 0,9.927 8.047,17.975 17.975,17.975 27.902,17.975 35.949,9.927 35.949,0 l 3.946,0 c 0,12.106 -9.814,21.92 -21.92,21.92 C 5.868,21.92 -3.946,12.106 -3.946,0 L 0,0 Z" /></g><g
           id="g84"><g
             id="g86" /><g
             id="g92"><g
               style="opacity:0.5"
               id="g94"
               clip-path="url(#clipPath88)"><path
                 id="path96"
                 style="fill:#edf1f2;fill-opacity:1;fill-rule:nonzero;stroke:none"
                 d="m 338.178,235.271 3.946,0 0,16.071 -3.946,0 0,-16.071 z" /><path
                 id="path98"
                 style="fill:#edf1f2;fill-opacity:1;fill-rule:nonzero;stroke:none"
                 d="m 298.284,235.271 3.946,0 0,16.071 -3.946,0 0,-16.071 z" /></g></g></g><g
           transform="translate(320.2037,242.0547)"
           id="g100"><path
             id="path102"
             style="fill:#e0e8ea;fill-opacity:1;fill-rule:nonzero;stroke:none"
             d="m 0,0 c -19.899,0 -38.857,-4.03 -56.102,-11.317 4.374,-9.131 8.687,-18.986 10.399,-25.549 4,-15.333 9.118,-37.716 10.618,-40.549 1.405,-3.828 5.082,-6.583 9.382,-6.583 l 51.406,0 c 4.3,0 7.977,2.755 9.382,6.583 1.5,2.833 6.618,25.216 10.618,40.549 1.712,6.563 6.025,16.418 10.399,25.549 C 38.857,-4.03 19.899,0 0,0" /></g><g
           transform="translate(282.0548,175.0588)"
           id="g104"><path
             id="path106"
             style="fill:#d1dadf;fill-opacity:1;fill-rule:nonzero;stroke:none"
             d="m 0,0 c 1.376,-5.351 2.487,-9.331 3.063,-10.42 1.406,-3.827 5.083,-6.582 9.383,-6.582 l 51.406,0 c 4.3,0 7.977,2.755 9.382,6.582 1.5,2.834 6.618,25.216 10.618,40.55 1.712,6.563 6.025,16.417 10.399,25.549 -6.356,2.686 -12.946,4.925 -19.728,6.687 C 58.061,33.597 31.66,11.254 0,0" /></g><g
           transform="translate(346.0306,153.5186)"
           id="g108"><path
             id="path110"
             style="fill:#ffffff;fill-opacity:1;fill-rule:nonzero;stroke:#4e6f7e;stroke-width:2.75;stroke-linecap:round;stroke-linejoin:round;stroke-miterlimit:10;stroke-dasharray:none;stroke-opacity:1"
             d="M 0,0 -52.52,0" /></g></g></g></g></svg>