<?xml version="1.0" encoding="utf-8"?>
<!-- Generator: Adobe Illustrator 17.0.0, SVG Export Plug-In . SVG Version: 6.00 Build 0)  -->
<!DOCTYPE svg PUBLIC "-//W3C//DTD SVG 1.1//EN" "http://www.w3.org/Graphics/SVG/1.1/DTD/svg11.dtd">
<svg version="1.1" id="Layer_1" xmlns="http://www.w3.org/2000/svg" xmlns:xlink="http://www.w3.org/1999/xlink" x="0px" y="0px"
	 width="360px" height="360px" viewBox="0 0 360 360" enable-background="new 0 0 360 360" xml:space="preserve">
<g>
	<g>
		<path fill="#FFFFFF" d="M7.642,179.891c0-65.348,36.34-122.206,89.912-151.476l-3.983-6.367
			C37.886,52.655,0.142,111.862,0.142,179.891c0,60.638,29.985,114.271,75.935,146.884l3.986-6.371
			C36.226,289.126,7.642,237.847,7.642,179.891z"/>
		<path fill="#FFFFFF" d="M180.142,7.391c29.921,0,58.06,7.622,82.589,21.024l3.983-6.367
			C241.026,7.929,211.524-0.109,180.142-0.109c-31.382,0-60.884,8.038-86.572,22.157l3.983,6.367
			C122.082,15.013,150.221,7.391,180.142,7.391z"/>
		<path fill="#FFFFFF" d="M180.142,352.391c-37.313,0-71.857-11.849-100.079-31.987l-3.986,6.371
			c29.382,20.854,65.291,33.116,104.065,33.116s74.683-12.261,104.065-33.116l-3.986-6.371
			C251.999,340.542,217.455,352.391,180.142,352.391z"/>
		<path fill="#FFFFFF" d="M360.142,179.891c0-68.029-37.744-127.237-93.428-157.843l-3.983,6.367
			c53.572,29.271,89.911,86.128,89.911,151.476c0,57.956-28.583,109.235-72.421,140.513l3.986,6.371
			C330.157,294.162,360.142,240.529,360.142,179.891z"/>
		<path fill="#FE8900" d="M262.73,28.415c-24.529-13.402-52.668-21.024-82.589-21.024c-29.921,0-58.06,7.622-82.588,21.024
			C43.982,57.685,7.642,114.543,7.642,179.891c0,57.956,28.584,109.235,72.421,140.513l6.115-9.774
			c-40.597-29.23-67.035-76.894-67.035-130.739c0-61.238,34.191-114.487,84.522-141.708c22.75-12.304,48.797-19.292,76.478-19.292
			s53.727,6.988,76.478,19.292c50.332,27.221,84.522,80.47,84.522,141.708c0,53.845-26.438,101.51-67.035,130.739l6.115,9.774
			c43.837-31.279,72.421-82.557,72.421-140.513C352.642,114.543,316.302,57.685,262.73,28.415z"/>
		<path fill="#FFC84A" d="M341.142,179.891c0-61.238-34.191-114.487-84.522-141.708c-22.75-12.304-48.797-19.292-76.478-19.292
			s-53.727,6.988-76.478,19.292c-50.332,27.221-84.522,80.47-84.522,141.708c0,53.845,26.438,101.51,67.035,130.739l-6.115,9.774
			c28.222,20.137,62.766,31.987,100.079,31.987s71.857-11.849,100.079-31.987l-6.115-9.774
			C314.704,281.401,341.142,233.736,341.142,179.891z"/>
	</g>
	<g>
		<g>
			<circle opacity="0.5" fill="#FFFFFF" cx="178.843" cy="279.546" r="12.5"/>
			<g>
				<path fill="#6B95A3" d="M152.209,260.529v3.766c0,8.284,6.716,15,15,15h25c8.284,0,15-6.716,15-15v-3.766H152.209z"/>
				
					<line fill="#FFFFFF" stroke="#4E6F7E" stroke-width="2.75" stroke-linecap="round" stroke-linejoin="round" stroke-miterlimit="10" x1="203.001" y1="273.467" x2="156.416" y2="273.467"/>
			</g>
		</g>
		<g>
			<path fill="#FFFFFF" d="M180.142,177.945c-19.899,0-38.857,4.03-56.102,11.317c-3.736-7.843-9.73-17.769-11.768-23.14
				c-0.014-0.026-0.033-0.144-0.033-0.144h0.009c-3.023-8-4.692-16.566-4.692-25.617c0-40.133,32.453-72.625,72.585-72.625
				s72.585,32.492,72.585,72.625c0,9.051-1.668,17.617-4.692,25.617h0.009c0,0-0.019,0.118-0.033,0.144
				c-2.037,5.371-8.032,15.297-11.768,23.14C218.998,181.975,200.041,177.945,180.142,177.945z"/>
			<g>
				<path fill="#EDF1F2" d="M252.727,140.361c0-19.259-7.487-36.745-19.696-49.739c1.207,7.386,1.845,14.963,1.845,22.691
					c0,25.204-6.679,48.848-18.36,69.262c6.782,1.762,13.372,4.002,19.728,6.687c3.736-7.843,9.73-17.769,11.768-23.14
					c0.014-0.026,0.033-0.144,0.033-0.144h-0.009C251.059,157.979,252.727,149.412,252.727,140.361z"/>
				<path fill="#FFFFFF" d="M180.142,67.736c-40.133,0-72.585,32.492-72.585,72.625c0,9.051,1.668,17.617,4.692,25.617h-0.009
					c0,0,0.019,0.118,0.033,0.144c2.037,5.371,8.032,15.297,11.768,23.14c17.245-7.287,36.203-11.317,56.102-11.317
					c12.565,0,24.753,1.611,36.374,4.63c11.681-20.414,18.36-44.057,18.36-69.262c0-7.727-0.638-15.305-1.845-22.691
					C219.798,76.539,201.016,67.736,180.142,67.736z"/>
			</g>
			<g>
				<path fill="#75919C" d="M162.167,168.658c0-9.927,8.047-17.975,17.975-17.975s17.975,8.047,17.975,17.975h3.946
					c0-12.106-9.814-21.92-21.92-21.92c-12.106,0-21.92,9.814-21.92,21.92H162.167z"/>
				<g opacity="0.5">
					<rect x="198.116" y="168.658" fill="#EDF1F2" width="3.946" height="16.071"/>
					<rect x="158.222" y="168.658" fill="#EDF1F2" width="3.946" height="16.071"/>
				</g>
			</g>
			<g>
				<path fill="#E0E8EA" d="M180.142,177.945c-19.899,0-38.857,4.03-56.102,11.317c4.374,9.132,8.687,18.986,10.399,25.549
					c4,15.333,9.118,37.716,10.618,40.549c1.405,3.828,5.083,6.583,9.382,6.583h51.407c4.299,0,7.977-2.755,9.382-6.583
					c1.5-2.833,6.618-25.216,10.618-40.549c1.712-6.563,6.025-16.418,10.399-25.549
					C218.998,181.975,200.041,177.945,180.142,177.945z"/>
				<path fill="#D1DADF" d="M141.993,244.941c1.376,5.351,2.487,9.331,3.063,10.42c1.405,3.828,5.083,6.583,9.382,6.583h51.407
					c4.299,0,7.977-2.755,9.382-6.583c1.5-2.833,6.618-25.216,10.618-40.549c1.712-6.563,6.025-16.418,10.399-25.549
					c-6.356-2.686-12.946-4.925-19.728-6.687C200.054,211.344,173.653,233.688,141.993,244.941z"/>
			</g>
		</g>
		
			<line fill="#FFFFFF" stroke="#4E6F7E" stroke-width="2.75" stroke-linecap="round" stroke-linejoin="round" stroke-miterlimit="10" x1="205.969" y1="266.481" x2="153.449" y2="266.481"/>
	</g>
</g>
</svg>
